<svg xmlns="http://www.w3.org/2000/svg" width="52.189" height="70" viewBox="0 0 52.189 70">
  <g id="Análises_de_simulados" data-name="Análises  de simulados" transform="translate(-65.138)">
    <path id="Path_1437" data-name="Path 1437" d="M314.574,68.619a1.025,1.025,0,0,0,.447-1.379l-4.984-9.769a1.026,1.026,0,0,0-1.827,0l-4.983,9.769a1.025,1.025,0,1,0,1.827.932l1.538-3.016h5.063l1.539,3.016A1.025,1.025,0,0,0,314.574,68.619ZM307.64,63.1l1.486-2.912L310.61,63.1Z" transform="translate(-205.442 -49.131)" fill="#64d190"/>
    <path id="Path_1438" data-name="Path 1438" d="M360.991,35.575h.938v.938a1.025,1.025,0,1,0,2.051,0v-.938h.938a1.025,1.025,0,1,0,0-2.051h-.938v-.938a1.025,1.025,0,1,0-2.051,0v.938h-.938a1.025,1.025,0,0,0,0,2.051Z" transform="translate(-254.52 -27.246)" fill="#64d190"/>
    <path id="Path_1439" data-name="Path 1439" d="M113.282,170.018a2.947,2.947,0,0,0-4.17,0l-1.061,1.061-.007-.007a2.949,2.949,0,0,0-4.171,4.17l2.092,2.092a2.947,2.947,0,0,0,4.171,0l3.146-3.146a2.953,2.953,0,0,0,0-4.17Zm-1.45,2.72-3.146,3.146a.9.9,0,0,1-1.27,0l-2.092-2.092a.9.9,0,0,1,1.27-1.27l.732.732a1.025,1.025,0,0,0,1.45,0l1.786-1.786a.9.9,0,0,1,1.27,1.27Z" transform="translate(-32.693 -146.027)" fill="#64d190"/>
    <path id="Path_1440" data-name="Path 1440" d="M113.282,244.372a2.947,2.947,0,0,0-4.17,0l-1.061,1.061-.007-.007a2.949,2.949,0,0,0-4.171,4.17l2.092,2.092a2.947,2.947,0,0,0,4.171,0l3.146-3.146a2.953,2.953,0,0,0,0-4.171Zm-1.45,2.72-3.146,3.146a.9.9,0,0,1-1.27,0l-2.092-2.092a.9.9,0,0,1,1.27-1.27l.732.732a1.025,1.025,0,0,0,1.45,0l1.786-1.786a.9.9,0,0,1,1.27,1.27Z" transform="translate(-32.693 -210.216)" fill="#64d190"/>
    <path id="Path_1441" data-name="Path 1441" d="M113.282,318.727a2.947,2.947,0,0,0-4.17,0l-1.061,1.061-.007-.007a2.949,2.949,0,0,0-4.171,4.17l2.092,2.092a2.947,2.947,0,0,0,4.171,0l3.146-3.146A2.952,2.952,0,0,0,113.282,318.727Zm-1.45,2.72-3.146,3.146a.9.9,0,0,1-1.27,0l-2.092-2.092a.9.9,0,0,1,1.27-1.27l.732.732a1.025,1.025,0,0,0,1.45,0l1.786-1.786a.9.9,0,0,1,1.27,1.27Z" transform="translate(-32.693 -274.405)" fill="#64d190"/>
    <path id="Path_1442" data-name="Path 1442" d="M221.054,256.591a2.306,2.306,0,0,0-2.3-2.3H203.272a2.306,2.306,0,0,0-2.3,2.3v1.491a2.306,2.306,0,0,0,2.3,2.3h15.478a2.306,2.306,0,0,0,2.3-2.3v-1.491ZM219,258.082a.253.253,0,0,1-.253.253H203.272a.253.253,0,0,1-.253-.253v-1.491a.253.253,0,0,1,.253-.253h15.478a.253.253,0,0,1,.253.253v1.491Z" transform="translate(-117.261 -219.522)" fill="#64d190"/>
    <path id="Path_1443" data-name="Path 1443" d="M221.054,330.946a2.306,2.306,0,0,0-2.3-2.3H203.272a2.306,2.306,0,0,0-2.3,2.3v1.491a2.306,2.306,0,0,0,2.3,2.3h15.478a2.306,2.306,0,0,0,2.3-2.3v-1.491ZM219,332.437a.253.253,0,0,1-.253.253H203.272a.253.253,0,0,1-.253-.253v-1.491a.253.253,0,0,1,.253-.253h15.478a.253.253,0,0,1,.253.253v1.491Z" transform="translate(-117.261 -283.712)" fill="#64d190"/>
    <path id="Path_1444" data-name="Path 1444" d="M109.111,393.081l-1.061,1.061-.007-.007a2.949,2.949,0,0,0-4.171,4.17l2.092,2.092a2.947,2.947,0,0,0,4.171,0l3.146-3.146a2.949,2.949,0,0,0-4.17-4.17Zm2.72,2.72-3.146,3.146a.9.9,0,0,1-1.27,0l-2.092-2.092a.9.9,0,0,1,1.27-1.27l.732.732a1.025,1.025,0,0,0,1.45,0l1.786-1.786a.9.9,0,0,1,1.27,1.27Z" transform="translate(-32.693 -338.594)" fill="#64d190"/>
    <path id="Path_1445" data-name="Path 1445" d="M218.751,407.044h-5.462a1.025,1.025,0,1,0,0,2.051h5.462a2.306,2.306,0,0,0,2.3-2.3V405.3a2.306,2.306,0,0,0-2.3-2.3H203.272a2.306,2.306,0,0,0-2.3,2.3v1.491a2.306,2.306,0,0,0,2.3,2.3H208.5a1.025,1.025,0,1,0,0-2.051h-5.231a.253.253,0,0,1-.253-.253V405.3a.253.253,0,0,1,.253-.252h15.478a.253.253,0,0,1,.253.252v1.491A.253.253,0,0,1,218.751,407.044Z" transform="translate(-117.261 -347.9)" fill="#64d190"/>
    <path id="Path_1446" data-name="Path 1446" d="M107.946,41.2a1.025,1.025,0,0,0,1.025-1.025V24.766A12.777,12.777,0,1,0,94.581,4.794H75.075a1.032,1.032,0,0,0-.725.3l-8.911,8.911a1.029,1.029,0,0,0-.3.725V66.965A3.038,3.038,0,0,0,68.173,70h37.764a3.038,3.038,0,0,0,3.035-3.035V44.958a1.025,1.025,0,1,0-2.051,0V66.965a.985.985,0,0,1-.984.984H68.173a.985.985,0,0,1-.984-.984V15.756h5.877A3.038,3.038,0,0,0,76.1,12.721V6.845H93.23A12.785,12.785,0,0,0,99.7,24.6H86.012a2.306,2.306,0,0,0-2.3,2.3v1.491a2.306,2.306,0,0,0,2.3,2.3H101.49a2.306,2.306,0,0,0,2.3-2.3V26.9a2.289,2.289,0,0,0-.485-1.408c.408.04.822.06,1.241.06a12.943,12.943,0,0,0,2.372-.221V40.173a1.025,1.025,0,0,0,1.025,1.025Zm-33.9-28.476a.985.985,0,0,1-.984.984H68.639l5.41-5.41Zm27.693,15.673a.253.253,0,0,1-.253.253H86.012a.253.253,0,0,1-.253-.253V26.9a.253.253,0,0,1,.253-.253H101.49a.253.253,0,0,1,.253.253v1.491Zm2.807-4.89a10.727,10.727,0,1,1,10.727-10.727A10.739,10.739,0,0,1,104.549,23.5Z" fill="#64d190"/>
  </g>
</svg>
