<svg xmlns="http://www.w3.org/2000/svg" viewBox="0 0 32.91 34.23"><defs><style>.cls-1{fill:#4650bc;}</style></defs><g id="Layer_2" data-name="Layer 2"><g id="Layer_1-2" data-name="Layer 1"><g id="Layer_2-2" data-name="Layer 2"><g id="Layer_1-3" data-name="Layer 1"><path id="Path_43" data-name="Path 43" class="cls-1" d="M14.53,0a5.92,5.92,0,0,1-.79.51A15,15,0,0,0,9.51,4.8a18.26,18.26,0,0,0-2.32,5,15.57,15.57,0,0,0-.53,7.33A12.21,12.21,0,0,0,11.46,25a.84.84,0,0,0,.5.19,10.78,10.78,0,0,0,3.44-.35c0-.17-.16-.16-.26-.19a9.28,9.28,0,0,1-5.59-5.39,13.65,13.65,0,0,1,3.29-15.2A14.77,14.77,0,0,1,19.42.62a7.11,7.11,0,0,1,4.9.54,19.58,19.58,0,0,1,4.57,3.07A17.73,17.73,0,0,1,32,8c.19.3.19.32-.06.53a6.29,6.29,0,0,1-1.5.83.46.46,0,0,1-.64-.18v0a23.19,23.19,0,0,0-3-3.36A11.6,11.6,0,0,0,25,4.42a20.85,20.85,0,0,0-3.34-1.51,2.46,2.46,0,0,0-1.32,0,10.27,10.27,0,0,0-2.72.86,2.09,2.09,0,0,0-.57.4,2.74,2.74,0,0,0,.7.09A13.31,13.31,0,0,1,22,5.19,12.21,12.21,0,0,1,27,8.93c.35.43.67.9,1,1.34a.41.41,0,0,1,0,.57s-.05.05-.09.06a5.34,5.34,0,0,1-1.55.81c-.27.08-.4-.08-.52-.27a10.93,10.93,0,0,0-1.59-1.87,10.14,10.14,0,0,0-2.82-1.9A11.46,11.46,0,0,0,19.32,7a8.57,8.57,0,0,0-6.14.73,1.31,1.31,0,0,0-.46.5,9.06,9.06,0,0,0-1.4,3c.14,0,.2-.07.28-.14A8.12,8.12,0,0,1,16.12,9a7.81,7.81,0,0,1,3.95.4,7.72,7.72,0,0,1,3.84,3c.06.08.1.17.16.25a.36.36,0,0,1-.06.49l0,0a9.24,9.24,0,0,1-1.5.84.48.48,0,0,1-.6-.2,6.64,6.64,0,0,0-1.17-1.08,7.56,7.56,0,0,0-1.95-1,4.89,4.89,0,0,0-2.68-.15A5,5,0,0,0,12.54,14a5.42,5.42,0,0,0-.33,4.88,5.53,5.53,0,0,0,4.08,3.44,4.89,4.89,0,0,0,4-.94,7,7,0,0,0,1.57-1.55c-.06-.15-.2-.17-.3-.25s-.17-.31,0-.39A25.09,25.09,0,0,1,26,18.05a1.29,1.29,0,0,1,.44,0c0,.14-.07.22-.13.32A24.92,24.92,0,0,1,21.59,24a16.56,16.56,0,0,1-3.35,2.29,12.34,12.34,0,0,1-9.82.79,15.94,15.94,0,0,1-3.36-1.6c-.12-.08-.26-.15-.39-.22l-.08,0a7.17,7.17,0,0,0,1,1.15,9.85,9.85,0,0,0,1.69,1.32,11.18,11.18,0,0,0,1.24.77,12.48,12.48,0,0,0,5.65,1.12,13.12,13.12,0,0,0,6.68-2.29,16.88,16.88,0,0,0,5.3-5.84,20.23,20.23,0,0,0,1.36-2.86.53.53,0,0,0-.31-.17c-.1,0-.22,0-.24-.15a.31.31,0,0,1,.19-.32c.67-.38,1.36-.73,2-1.14.25-.16.32,0,.41.13l.93,1.8a1.48,1.48,0,0,1,.1.27c.05.15,0,.3-.16.27-.46-.1-.58.18-.71.53a20.39,20.39,0,0,1-2.41,4.66,18,18,0,0,1-3.07,3.34,15.16,15.16,0,0,1-2.67,1.89,17.46,17.46,0,0,1-3.41,1.54,2.7,2.7,0,0,0-.66.27,18.33,18.33,0,0,0,2.07-.27,19.66,19.66,0,0,0,2.82-.69,13.45,13.45,0,0,0,4.14-2.25,12.39,12.39,0,0,0,3-3.61A18.31,18.31,0,0,0,30.81,22a4.73,4.73,0,0,0,.37-1.49.17.17,0,0,1,.16.11,25.26,25.26,0,0,1,1.53,4.87c.08.46.07.47-.4.31s-.39-.13-.63.22a18.8,18.8,0,0,1-2.64,3.2,17.28,17.28,0,0,1-2.11,1.68,20.7,20.7,0,0,1-2.64,1.58,17.53,17.53,0,0,1-3.05,1.15,16.39,16.39,0,0,1-3.93.65A17.79,17.79,0,0,1,13.9,34a16.21,16.21,0,0,1-2.07-.44,16.75,16.75,0,0,1-3.47-1.45A10.19,10.19,0,0,1,6.2,30.53c-.35-.34-.76-.61-1.12-1a16.63,16.63,0,0,1-1.72-2,15.81,15.81,0,0,1-1.63-2.78,16.09,16.09,0,0,1-1-2.72A20.54,20.54,0,0,1,.2,18.93,6.34,6.34,0,0,0,0,17.71V16a1.82,1.82,0,0,0,.2-.94A16.19,16.19,0,0,1,2.28,8.6c.05-.09.06-.23.25-.2,0,.2,0,.39-.08.59A30.07,30.07,0,0,0,2,13.92a16,16,0,0,0,.54,4.77A7.71,7.71,0,0,0,6,23.36a1,1,0,0,0,.51.22,1.18,1.18,0,0,0-.2-.46,21.16,21.16,0,0,1-2.49-8.06,15.73,15.73,0,0,1,.78-6.31,19.75,19.75,0,0,1,3.31-6,1.76,1.76,0,0,1,.39-.38A13.28,13.28,0,0,1,13.44.18c.23,0,.5,0,.7-.18Z"/></g></g></g></g></svg>