<svg xmlns="http://www.w3.org/2000/svg" width="152.278" height="34.239" viewBox="0 0 152.278 34.239">
  <g id="Group_541" data-name="Group 541" transform="translate(-33 -17)">
    <g id="Layer_2" data-name="Layer 2" transform="translate(33 17)">
      <g id="Layer_1" data-name="Layer 1" transform="translate(0 0)">
        <path id="Path_43" data-name="Path 43" d="M14.532,0a5.515,5.515,0,0,1-.792.509A15.033,15.033,0,0,0,9.51,4.8,18.255,18.255,0,0,0,7.187,9.764a15.724,15.724,0,0,0-.53,7.323,12.281,12.281,0,0,0,4.8,7.928.852.852,0,0,0,.5.182,10.788,10.788,0,0,0,3.444-.348c-.02-.167-.161-.156-.263-.192a9.289,9.289,0,0,1-5.591-5.388,13.661,13.661,0,0,1,3.293-15.2A14.78,14.78,0,0,1,19.416.616a7.107,7.107,0,0,1,4.9.547,19.225,19.225,0,0,1,4.57,3.07,17.834,17.834,0,0,1,3.129,3.742c.187.294.188.316-.069.528a6.321,6.321,0,0,1-1.5.827.466.466,0,0,1-.645-.2A23.847,23.847,0,0,0,26.822,5.77a12.229,12.229,0,0,0-1.838-1.353,21.009,21.009,0,0,0-3.347-1.511,2.632,2.632,0,0,0-1.322,0,10.4,10.4,0,0,0-2.719.866,2.041,2.041,0,0,0-.567.4,2.37,2.37,0,0,0,.7.084,13.45,13.45,0,0,1,4.223.934,12.2,12.2,0,0,1,5.063,3.738c.354.436.674.9,1.011,1.344a.4.4,0,0,1-.082.632,5.612,5.612,0,0,1-1.555.808c-.273.081-.4-.084-.52-.267a10.5,10.5,0,0,0-1.593-1.876,10.155,10.155,0,0,0-2.815-1.9,11.85,11.85,0,0,0-2.14-.72,8.6,8.6,0,0,0-6.137.727,1.4,1.4,0,0,0-.468.5A8.946,8.946,0,0,0,11.325,11.2c.138.039.195-.067.273-.142a8.138,8.138,0,0,1,4.524-2.106,7.853,7.853,0,0,1,3.951.4,7.742,7.742,0,0,1,3.84,2.98c.055.082.1.17.153.253a.342.342,0,0,1-.1.509,8.673,8.673,0,0,1-1.5.832c-.232.115-.436,0-.6-.2A6.31,6.31,0,0,0,20.7,12.648a7.43,7.43,0,0,0-1.954-.964,4.837,4.837,0,0,0-2.673-.149,5.025,5.025,0,0,0-3.534,2.505,5.428,5.428,0,0,0-.329,4.881,5.557,5.557,0,0,0,4.078,3.441,4.89,4.89,0,0,0,4.044-.946,6.722,6.722,0,0,0,1.564-1.545c-.06-.153-.2-.175-.3-.252-.192-.149-.169-.309.053-.385a24.16,24.16,0,0,1,4.342-1.18,1.147,1.147,0,0,1,.44-.025c.022.137-.068.222-.127.317a25.094,25.094,0,0,1-4.711,5.687,17.074,17.074,0,0,1-3.355,2.289,12.538,12.538,0,0,1-4.524,1.386,12.3,12.3,0,0,1-5.294-.6,15.841,15.841,0,0,1-3.358-1.6c-.125-.079-.257-.149-.387-.219-.009,0-.028.009-.084.028a7.216,7.216,0,0,0,1.052,1.158,9.6,9.6,0,0,0,1.684,1.313,10.353,10.353,0,0,0,1.244.77,12.488,12.488,0,0,0,5.647,1.122A13.06,13.06,0,0,0,20.9,27.39a16.943,16.943,0,0,0,5.3-5.84,19.438,19.438,0,0,0,1.355-2.862.5.5,0,0,0-.308-.17c-.094-.031-.22-.037-.238-.149a.318.318,0,0,1,.192-.319c.669-.378,1.357-.727,2.006-1.137.256-.162.32-.044.41.125q.473.9.936,1.8a1.676,1.676,0,0,1,.1.277c.045.149.012.3-.164.263-.463-.1-.581.177-.711.532a19.881,19.881,0,0,1-2.411,4.662,18.36,18.36,0,0,1-3.069,3.34A15.687,15.687,0,0,1,21.634,29.8a17.364,17.364,0,0,1-3.411,1.536,2.518,2.518,0,0,0-.662.278,18.636,18.636,0,0,0,2.066-.276,18.028,18.028,0,0,0,2.82-.689A13.562,13.562,0,0,0,26.586,28.4a12.306,12.306,0,0,0,2.993-3.609,17.971,17.971,0,0,0,1.233-2.837,4.887,4.887,0,0,0,.37-1.491.167.167,0,0,1,.157.106,24.968,24.968,0,0,1,1.53,4.871c.083.46.069.467-.4.313-.39-.128-.393-.13-.625.213a19.15,19.15,0,0,1-2.642,3.2,17.038,17.038,0,0,1-2.107,1.683,21.115,21.115,0,0,1-2.643,1.583,17.727,17.727,0,0,1-3.047,1.15,16.4,16.4,0,0,1-3.936.647,17.8,17.8,0,0,1-3.564-.277,17.174,17.174,0,0,1-2.077-.442,17.083,17.083,0,0,1-3.472-1.448A10.377,10.377,0,0,1,6.2,30.534c-.351-.341-.764-.619-1.122-.954a16.611,16.611,0,0,1-1.721-2.031,16.343,16.343,0,0,1-1.627-2.78,16.506,16.506,0,0,1-1-2.714A20.55,20.55,0,0,1,.2,18.93,6.1,6.1,0,0,0,0,17.709V16.017a1.771,1.771,0,0,0,.2-.94A16.245,16.245,0,0,1,2.276,8.6c.05-.089.065-.233.253-.2-.026.2-.043.393-.078.585a29.488,29.488,0,0,0-.5,4.935,15.814,15.814,0,0,0,.54,4.769,7.716,7.716,0,0,0,3.538,4.675,1.083,1.083,0,0,0,.512.219,1.243,1.243,0,0,0-.2-.464,21,21,0,0,1-2.488-8.056,15.7,15.7,0,0,1,.775-6.312A19.845,19.845,0,0,1,7.936,2.779a1.778,1.778,0,0,1,.39-.378A13.234,13.234,0,0,1,13.438.181c.231-.043.5,0,.7-.181Z" transform="translate(0 0)" fill="#fff"/>
      </g>
    </g>
    <path id="Path_45" data-name="Path 45" d="M7.075-3.375a3.271,3.271,0,0,0-2.358-.953,2.874,2.874,0,0,0-1.445.359A2.55,2.55,0,0,0,2.28-2.953a3.1,3.1,0,0,0-.359,1.515A3.16,3.16,0,0,0,2.272.077,2.583,2.583,0,0,0,3.24,1.1a2.711,2.711,0,0,0,1.414.367A3.72,3.72,0,0,0,6.091,1.2,2.734,2.734,0,0,0,7.153.436l.828.843A3.653,3.653,0,0,1,6.552,2.357a4.893,4.893,0,0,1-1.96.375A4.264,4.264,0,0,1,2.452,2.2,3.756,3.756,0,0,1,.991.725,4.391,4.391,0,0,1,.468-1.438,4.435,4.435,0,0,1,.991-3.609a3.742,3.742,0,0,1,1.46-1.484,4.264,4.264,0,0,1,2.14-.531,5.227,5.227,0,0,1,1.882.32,3.642,3.642,0,0,1,1.4.929ZM14.7-5.624a4.46,4.46,0,0,1,2.194.531,3.82,3.82,0,0,1,1.5,1.476,4.289,4.289,0,0,1,.539,2.163A4.333,4.333,0,0,1,18.391.717a3.805,3.805,0,0,1-1.5,1.484,4.46,4.46,0,0,1-2.194.531,4.492,4.492,0,0,1-2.21-.531,3.82,3.82,0,0,1-1.5-1.476,4.321,4.321,0,0,1-.539-2.179,4.289,4.289,0,0,1,.539-2.163,3.82,3.82,0,0,1,1.5-1.476A4.492,4.492,0,0,1,14.7-5.624Zm0,1.265a2.78,2.78,0,0,0-1.445.375,2.591,2.591,0,0,0-.984,1.039,3.172,3.172,0,0,0-.351,1.507A3.252,3.252,0,0,0,12.268.093a2.526,2.526,0,0,0,.984,1.039A2.826,2.826,0,0,0,14.7,1.5a2.8,2.8,0,0,0,1.429-.367A2.526,2.526,0,0,0,17.11.093a3.252,3.252,0,0,0,.351-1.531,3.172,3.172,0,0,0-.351-1.507,2.591,2.591,0,0,0-.984-1.039A2.75,2.75,0,0,0,14.7-4.359ZM27.114-5.624a3.033,3.033,0,0,1,2.28.851,3.229,3.229,0,0,1,.828,2.351V2.685H28.77V-2.032a2.206,2.206,0,0,0-.586-1.632,2.185,2.185,0,0,0-1.617-.586,2.493,2.493,0,0,0-1.8.711,2.791,2.791,0,0,0-.789,1.8v4.42H22.522V-5.577h1.453v1.749A3.19,3.19,0,0,1,27.114-5.624Zm5.592.047h1.546l2.483,6.826L39.2-5.577h1.468L37.454,2.685H35.939Zm13.932-.047a3.641,3.641,0,0,1,2.905,1.132,4.642,4.642,0,0,1,.984,3.147q0,.312-.016.469H43.983A2.816,2.816,0,0,0,44.912.889a2.751,2.751,0,0,0,1.866.656,3.5,3.5,0,0,0,1.367-.266,3.284,3.284,0,0,0,1.1-.75l.8.828a4.173,4.173,0,0,1-1.468,1.015,4.893,4.893,0,0,1-1.906.359,4.391,4.391,0,0,1-2.163-.523A3.676,3.676,0,0,1,43.038.733a4.435,4.435,0,0,1-.523-2.171A4.391,4.391,0,0,1,43.038-3.6,3.81,3.81,0,0,1,44.5-5.085,4.215,4.215,0,0,1,46.638-5.624ZM49.215-2a2.524,2.524,0,0,0-.75-1.773,2.533,2.533,0,0,0-1.812-.648,2.613,2.613,0,0,0-1.82.656A2.752,2.752,0,0,0,43.967-2Zm6.31-1.8a2.991,2.991,0,0,1,1.156-1.351,3.436,3.436,0,0,1,1.781-.476v1.406a2.779,2.779,0,0,0-2.046.656,2.78,2.78,0,0,0-.89,1.89V2.685H54.073V-5.577h1.453ZM68.911-5.577V1.842a4.024,4.024,0,0,1-.523,2.077,3.472,3.472,0,0,1-1.476,1.367,4.9,4.9,0,0,1-2.218.476,5.648,5.648,0,0,1-3.4-1.156l.64-1.062a4.4,4.4,0,0,0,1.265.742,4.121,4.121,0,0,0,1.437.242,2.868,2.868,0,0,0,2.046-.718,2.51,2.51,0,0,0,.765-1.921V.733A3.071,3.071,0,0,1,66.256,1.9a3.5,3.5,0,0,1-1.718.414,3.753,3.753,0,0,1-1.96-.508A3.459,3.459,0,0,1,61.258.389a4.457,4.457,0,0,1-.469-2.077,4.328,4.328,0,0,1,.469-2.046,3.431,3.431,0,0,1,1.32-1.39,3.8,3.8,0,0,1,1.96-.5,3.538,3.538,0,0,1,1.726.406,3.03,3.03,0,0,1,1.179,1.156V-5.577ZM64.819,1.139A2.572,2.572,0,0,0,66.178.78a2.51,2.51,0,0,0,.929-.992,3,3,0,0,0,.336-1.429,3.034,3.034,0,0,0-.336-1.445,2.51,2.51,0,0,0-.929-.992,2.572,2.572,0,0,0-1.359-.359,2.613,2.613,0,0,0-1.367.359,2.548,2.548,0,0,0-.945.992,2.978,2.978,0,0,0-.344,1.445,2.859,2.859,0,0,0,.75,2A2.5,2.5,0,0,0,64.819,1.139Zm8.309-6.716h1.453V2.685H73.128Zm.718-3.3a.866.866,0,0,1,.648.266.925.925,0,0,1,.258.672.925.925,0,0,1-.258.672A.866.866,0,0,1,73.847-7a.866.866,0,0,1-.648-.266.925.925,0,0,1-.258-.672.925.925,0,0,1,.258-.672A.866.866,0,0,1,73.847-8.873Zm9.715,3.249a3.033,3.033,0,0,1,2.28.851,3.229,3.229,0,0,1,.828,2.351V2.685H85.217V-2.032a2.206,2.206,0,0,0-.586-1.632,2.185,2.185,0,0,0-1.617-.586,2.493,2.493,0,0,0-1.8.711,2.791,2.791,0,0,0-.789,1.8v4.42H78.97V-5.577h1.453v1.749A3.19,3.19,0,0,1,83.562-5.624ZM98.525-8.9V2.685H97.072V1.045a3.284,3.284,0,0,1-1.257,1.273,3.671,3.671,0,0,1-1.835.445,3.944,3.944,0,0,1-2.07-.539,3.7,3.7,0,0,1-1.4-1.5,4.685,4.685,0,0,1-.5-2.194,4.557,4.557,0,0,1,.5-2.163,3.673,3.673,0,0,1,1.4-1.476,3.958,3.958,0,0,1,2.054-.531,3.8,3.8,0,0,1,1.859.437,3.112,3.112,0,0,1,1.25,1.265V-8.9ZM94.276,1.514a2.78,2.78,0,0,0,1.445-.375A2.632,2.632,0,0,0,96.713.093a3.161,3.161,0,0,0,.359-1.515,3.2,3.2,0,0,0-.359-1.531A2.632,2.632,0,0,0,95.721-4a2.78,2.78,0,0,0-1.445-.375,2.736,2.736,0,0,0-1.445.383,2.688,2.688,0,0,0-.992,1.054,3.161,3.161,0,0,0-.359,1.515A3.161,3.161,0,0,0,91.84.093a2.632,2.632,0,0,0,.992,1.046A2.78,2.78,0,0,0,94.276,1.514Zm12.167-7.138a4.46,4.46,0,0,1,2.194.531,3.82,3.82,0,0,1,1.5,1.476,4.289,4.289,0,0,1,.539,2.163,4.333,4.333,0,0,1-.539,2.171,3.805,3.805,0,0,1-1.5,1.484,4.46,4.46,0,0,1-2.194.531,4.492,4.492,0,0,1-2.21-.531,3.82,3.82,0,0,1-1.5-1.476,4.321,4.321,0,0,1-.539-2.179,4.289,4.289,0,0,1,.539-2.163,3.82,3.82,0,0,1,1.5-1.476A4.492,4.492,0,0,1,106.444-5.624Zm0,1.265A2.78,2.78,0,0,0,105-3.984a2.591,2.591,0,0,0-.984,1.039,3.172,3.172,0,0,0-.351,1.507,3.252,3.252,0,0,0,.351,1.531A2.526,2.526,0,0,0,105,1.131a2.826,2.826,0,0,0,1.445.367,2.8,2.8,0,0,0,1.429-.367,2.526,2.526,0,0,0,.984-1.039,3.252,3.252,0,0,0,.351-1.531,3.172,3.172,0,0,0-.351-1.507,2.591,2.591,0,0,0-.984-1.039A2.75,2.75,0,0,0,106.444-4.359Z" transform="translate(74.601 36.32)" fill="#fff"/>
  </g>
</svg>
