<svg xmlns="http://www.w3.org/2000/svg" width="70.036" height="70" viewBox="0 0 70.036 70">
  <g id="Organização_personalizada" data-name="Organização  personalizada" transform="translate(-16 -16)">
    <circle id="Ellipse_76" data-name="Ellipse 76" cx="1.167" cy="1.167" r="1.167" transform="translate(19.502 54.52)" fill="#6975fc"/>
    <circle id="Ellipse_77" data-name="Ellipse 77" cx="1.167" cy="1.167" r="1.167" transform="translate(23.004 54.52)" fill="#6975fc"/>
    <circle id="Ellipse_78" data-name="Ellipse 78" cx="1.167" cy="1.167" r="1.167" transform="translate(26.505 54.52)" fill="#6975fc"/>
    <path id="Path_1414" data-name="Path 1414" d="M192,264h7v2.335h-7Z" transform="translate(-150.32 -211.814)" fill="#6975fc"/>
    <path id="Path_1415" data-name="Path 1415" d="M192,296h7v2.335h-7Z" transform="translate(-150.32 -239.145)" fill="#6975fc"/>
    <circle id="Ellipse_79" data-name="Ellipse 79" cx="1.167" cy="1.167" r="1.167" transform="translate(19.502 38.178)" fill="#6975fc"/>
    <circle id="Ellipse_80" data-name="Ellipse 80" cx="1.167" cy="1.167" r="1.167" transform="translate(23.004 38.178)" fill="#6975fc"/>
    <circle id="Ellipse_81" data-name="Ellipse 81" cx="1.167" cy="1.167" r="1.167" transform="translate(26.505 38.178)" fill="#6975fc"/>
    <path id="Path_1416" data-name="Path 1416" d="M192,152h7v2.335h-7Z" transform="translate(-150.32 -116.156)" fill="#6975fc"/>
    <path id="Path_1417" data-name="Path 1417" d="M192,184h7v2.335h-7Z" transform="translate(-150.32 -143.487)" fill="#6975fc"/>
    <path id="Path_1418" data-name="Path 1418" d="M48.684,16H20.669A4.674,4.674,0,0,0,16,20.669v4.669a4.677,4.677,0,0,0,3.5,4.521v2.63A4.677,4.677,0,0,0,16,37.011V41.68A4.677,4.677,0,0,0,19.5,46.2v2.63A4.677,4.677,0,0,0,16,53.353v4.669a4.677,4.677,0,0,0,3.5,4.521v3.65a1.167,1.167,0,0,0,1.167,1.167h4.669a1.167,1.167,0,0,0,1.167-1.167v-3.5H42.847v3.5a1.167,1.167,0,0,0,1.167,1.167h4.669a1.167,1.167,0,0,0,1.167-1.167v-3.65a4.677,4.677,0,0,0,3.5-4.521V53.353a4.677,4.677,0,0,0-3.5-4.521V46.2a4.677,4.677,0,0,0,3.5-4.521V37.011a4.677,4.677,0,0,0-3.5-4.521V29.86a4.677,4.677,0,0,0,3.5-4.521V20.669A4.674,4.674,0,0,0,48.684,16Zm-3.5,16.342V30.007h2.335v2.335Zm-2.335,0H26.505V30.007H42.847Zm-18.676,0H21.836V30.007h2.335ZM45.182,48.684V46.349h2.335v2.335Zm-2.335,0H26.505V46.349H42.847Zm-18.676,0H21.836V46.349h2.335Zm0,16.342H21.836V62.691h2.335Zm21.011,0V62.691h2.335v2.335Zm5.836-11.673v4.669a2.337,2.337,0,0,1-2.335,2.335H20.669a2.337,2.337,0,0,1-2.335-2.335V53.353a2.337,2.337,0,0,1,2.335-2.335H48.684A2.337,2.337,0,0,1,51.018,53.353Zm0-16.342V41.68a2.337,2.337,0,0,1-2.335,2.335H20.669a2.337,2.337,0,0,1-2.335-2.335V37.011a2.337,2.337,0,0,1,2.335-2.335H48.684A2.337,2.337,0,0,1,51.018,37.011Zm0-11.673a2.337,2.337,0,0,1-2.335,2.335H20.669a2.337,2.337,0,0,1-2.335-2.335V20.669a2.337,2.337,0,0,1,2.335-2.335H48.684a2.337,2.337,0,0,1,2.335,2.335Z" fill="#6975fc"/>
    <circle id="Ellipse_82" data-name="Ellipse 82" cx="1.167" cy="1.167" r="1.167" transform="translate(19.502 21.836)" fill="#6975fc"/>
    <circle id="Ellipse_83" data-name="Ellipse 83" cx="1.167" cy="1.167" r="1.167" transform="translate(23.004 21.836)" fill="#6975fc"/>
    <circle id="Ellipse_84" data-name="Ellipse 84" cx="1.167" cy="1.167" r="1.167" transform="translate(26.505 21.836)" fill="#6975fc"/>
    <path id="Path_1419" data-name="Path 1419" d="M192,40h7v2.335h-7Z" transform="translate(-150.32 -20.498)" fill="#6975fc"/>
    <path id="Path_1420" data-name="Path 1420" d="M192,72h7v2.335h-7Z" transform="translate(-150.32 -47.829)" fill="#6975fc"/>
    <path id="Path_1421" data-name="Path 1421" d="M288,64v2.335h3.5v53.695a1.167,1.167,0,0,0,1.167,1.167h4.669v-2.335h-3.5V93.182h3.5V90.847h-3.5V66.335h3.5V64Z" transform="translate(-232.313 -40.996)" fill="#6975fc"/>
    <path id="Path_1422" data-name="Path 1422" d="M382.007,16h-9.338A4.674,4.674,0,0,0,368,20.669v7a4.674,4.674,0,0,0,4.669,4.669h9.338a4.674,4.674,0,0,0,4.669-4.669v-7A4.674,4.674,0,0,0,382.007,16Zm2.335,4.669V21.3a4.639,4.639,0,0,0-2.335-.628h-2.5a2.322,2.322,0,0,1-2.088-1.291l-.4-.8c-.042-.084-.088-.166-.134-.247h5.126A2.337,2.337,0,0,1,384.342,20.669Zm0,7a2.337,2.337,0,0,1-2.335,2.335h-9.338a2.337,2.337,0,0,1-2.334-2.335v-7a2.337,2.337,0,0,1,2.334-2.335h.17a2.322,2.322,0,0,1,2.088,1.291l.4.8A4.644,4.644,0,0,0,379.5,23h2.5a2.337,2.337,0,0,1,2.335,2.335Z" transform="translate(-300.64)" fill="#6975fc"/>
    <path id="Path_1423" data-name="Path 1423" d="M382.007,199.875h-9.338A4.674,4.674,0,0,0,368,204.544v7a4.674,4.674,0,0,0,4.669,4.669h9.338a4.674,4.674,0,0,0,4.669-4.669v-7A4.674,4.674,0,0,0,382.007,199.875Zm2.335,4.669v.628a4.639,4.639,0,0,0-2.335-.628h-2.5a2.322,2.322,0,0,1-2.088-1.291l-.4-.8c-.042-.084-.088-.166-.134-.246h5.126A2.337,2.337,0,0,1,384.342,204.544Zm0,7a2.337,2.337,0,0,1-2.335,2.335h-9.338a2.337,2.337,0,0,1-2.334-2.335v-7a2.337,2.337,0,0,1,2.334-2.335h.17a2.322,2.322,0,0,1,2.088,1.291l.4.8a4.644,4.644,0,0,0,4.176,2.581h2.5a2.337,2.337,0,0,1,2.335,2.335Z" transform="translate(-300.64 -157.046)" fill="#6975fc"/>
    <path id="Path_1424" data-name="Path 1424" d="M382.007,383.75h-9.338A4.674,4.674,0,0,0,368,388.419v7a4.674,4.674,0,0,0,4.669,4.669h9.338a4.674,4.674,0,0,0,4.669-4.669v-7a4.674,4.674,0,0,0-4.669-4.669Zm2.335,4.669v.628a4.639,4.639,0,0,0-2.335-.628h-2.5a2.322,2.322,0,0,1-2.088-1.291l-.4-.8c-.042-.084-.088-.166-.134-.247h5.126A2.337,2.337,0,0,1,384.342,388.419Zm0,7a2.337,2.337,0,0,1-2.335,2.335h-9.338a2.337,2.337,0,0,1-2.334-2.335v-7a2.337,2.337,0,0,1,2.334-2.335h.17a2.322,2.322,0,0,1,2.088,1.291l.4.8a4.644,4.644,0,0,0,4.176,2.581h2.5a2.337,2.337,0,0,1,2.335,2.335Z" transform="translate(-300.64 -314.092)" fill="#6975fc"/>
  </g>
</svg>
