<svg id="Revisões_" data-name="Revisões " xmlns="http://www.w3.org/2000/svg" width="70" height="70" viewBox="0 0 70 70">
  <path id="Path_1425" data-name="Path 1425" d="M292,207.367A1.367,1.367,0,1,0,293.367,206,1.368,1.368,0,0,0,292,207.367Z" transform="translate(-252.078 -177.836)" fill="#fda902"/>
  <path id="Path_1426" data-name="Path 1426" d="M4.1,70H49.492a4.106,4.106,0,0,0,4.1-4.1V12.3a4.106,4.106,0,0,0-4.1-4.1H42.656V6.836a1.367,1.367,0,0,0-1.367-1.367H34.533a8.206,8.206,0,0,0-15.472,0H12.3a1.367,1.367,0,0,0-1.367,1.367V8.2H4.1A4.106,4.106,0,0,0,0,12.3V65.9A4.106,4.106,0,0,0,4.1,70Zm9.57-61.8H20.1a1.367,1.367,0,0,0,1.34-1.1,5.47,5.47,0,0,1,10.718,0A1.367,1.367,0,0,0,33.5,8.2h6.426v2.734H13.672ZM2.734,12.3A1.369,1.369,0,0,1,4.1,10.937h6.836V12.3A1.367,1.367,0,0,0,12.3,13.672H41.289A1.367,1.367,0,0,0,42.656,12.3V10.937h6.836A1.369,1.369,0,0,1,50.859,12.3V65.9a1.369,1.369,0,0,1-1.367,1.367H4.1A1.369,1.369,0,0,1,2.734,65.9Z" fill="#fda902"/>
  <path id="Path_1427" data-name="Path 1427" d="M63.134,173.8a1.367,1.367,0,0,0,1.933,0l5.469-5.469A1.367,1.367,0,1,0,68.6,166.4l-4.5,4.5-1.768-1.768a1.367,1.367,0,0,0-1.934,1.934Z" transform="translate(-51.796 -143.305)" fill="#fda902"/>
  <path id="Path_1428" data-name="Path 1428" d="M63.134,273.8a1.367,1.367,0,0,0,1.933,0l5.469-5.469A1.367,1.367,0,1,0,68.6,266.4l-4.5,4.5-1.768-1.768a1.367,1.367,0,1,0-1.934,1.934Z" transform="translate(-51.796 -229.633)" fill="#fda902"/>
  <path id="Path_1429" data-name="Path 1429" d="M64.1,366a4.1,4.1,0,1,0,4.1,4.1A4.106,4.106,0,0,0,64.1,366Zm0,5.469a1.367,1.367,0,1,1,1.367-1.367A1.369,1.369,0,0,1,64.1,371.469Z" transform="translate(-51.797 -315.961)" fill="#fda902"/>
  <path id="Path_1430" data-name="Path 1430" d="M187.367,168.734h17.227a1.367,1.367,0,0,0,0-2.734H187.367a1.367,1.367,0,0,0,0,2.734Z" transform="translate(-160.57 -143.305)" fill="#fda902"/>
  <path id="Path_1431" data-name="Path 1431" d="M187.367,208.734h9.023a1.367,1.367,0,0,0,0-2.734h-9.023a1.367,1.367,0,0,0,0,2.734Z" transform="translate(-160.57 -177.836)" fill="#fda902"/>
  <path id="Path_1432" data-name="Path 1432" d="M187.367,268.734h17.227a1.367,1.367,0,1,0,0-2.734H187.367a1.367,1.367,0,1,0,0,2.734Z" transform="translate(-160.57 -229.633)" fill="#fda902"/>
  <path id="Path_1433" data-name="Path 1433" d="M187.367,308.734h11.758a1.367,1.367,0,0,0,0-2.734H187.367a1.367,1.367,0,0,0,0,2.734Z" transform="translate(-160.57 -264.164)" fill="#fda902"/>
  <path id="Path_1434" data-name="Path 1434" d="M187.367,368.734h17.227a1.367,1.367,0,0,0,0-2.734H187.367a1.367,1.367,0,0,0,0,2.734Z" transform="translate(-160.57 -315.961)" fill="#fda902"/>
  <path id="Path_1435" data-name="Path 1435" d="M187.367,408.734h11.758a1.367,1.367,0,0,0,0-2.734H187.367a1.367,1.367,0,1,0,0,2.734Z" transform="translate(-160.57 -350.492)" fill="#fda902"/>
  <path id="Path_1436" data-name="Path 1436" d="M441.444,68.073l-2.7-7.186a1.367,1.367,0,0,0-1.28-.887h0a1.367,1.367,0,0,0-1.28.887l-2.7,7.193A23.488,23.488,0,0,0,432,76.305V117.7a4.106,4.106,0,0,0,4.1,4.1h2.734a4.106,4.106,0,0,0,4.1-4.1V76.305A23.5,23.5,0,0,0,441.444,68.073Zm-6.71,8.232a20.766,20.766,0,0,1,.169-2.633h5.129a20.7,20.7,0,0,1,.17,2.633v33.734h-5.469V76.305Zm2.734-11.044,1.417,3.776c.233.622.435,1.258.607,1.9h-4.048c.172-.642.374-1.277.607-1.9Zm1.367,53.8H436.1a1.369,1.369,0,0,1-1.367-1.367v-4.922H440.2V117.7A1.369,1.369,0,0,1,438.836,119.062Z" transform="translate(-372.938 -51.797)" fill="#fda902"/>
</svg>
